<svg width="30" height="30" viewBox="0 0 30 30" fill="none" xmlns="http://www.w3.org/2000/svg">
<rect width="30" height="30" rx="6" fill="#ECECEC"/>
<path d="M12.2995 15.6413L17.3004 19.8087C17.4704 19.9493 17.6892 20.0168 17.9089 19.9964C18.1286 19.9761 18.3312 19.8695 18.4725 19.7C18.6137 19.5305 18.6821 19.312 18.6626 19.0922C18.643 18.8725 18.5372 18.6694 18.3683 18.5275L14.1358 15.0007L18.3683 11.4739C18.5379 11.3322 18.6443 11.1289 18.6641 10.9088C18.684 10.6887 18.6156 10.4697 18.4741 10.3C18.3326 10.1302 18.1295 10.0236 17.9095 10.0035C17.6894 9.98335 17.4703 10.0514 17.3004 10.1927L12.2995 14.3602C12.2058 14.4385 12.1303 14.5365 12.0786 14.6471C12.0268 14.7578 12 14.8785 12 15.0007C12 15.1229 12.0268 15.2436 12.0786 15.3543C12.1303 15.465 12.2058 15.5629 12.2995 15.6413Z" fill="black"/>
</svg>
