<svg width="13" height="18" viewBox="0 0 13 18" fill="none" xmlns="http://www.w3.org/2000/svg">
<g id="Layer_1" clip-path="url(#clip0_4038_55)">
<path id="Vector" d="M2.7975 1.40625C2.85937 0.369375 3.25126 0 4.23563 0H8.805C9.675 0 10.1175 0.45 10.1175 1.3125C10.1175 1.78125 10.1175 2.25 10.1175 2.71875C10.1282 2.88092 10.1042 3.04349 10.0472 3.19568C9.99021 3.34788 9.90148 3.48621 9.78692 3.60148C9.67236 3.71675 9.53459 3.80632 9.38275 3.86426C9.23091 3.92219 9.06848 3.94716 8.90625 3.9375C7.28125 3.9375 5.6525 3.9375 4.02 3.9375C3.28875 3.9375 2.82187 3.45563 2.81062 2.72063C2.81062 2.48625 2.81062 2.25375 2.81062 1.97063C2.19 1.97063 1.5825 1.93875 0.984375 1.99125C0.8325 2.00437 0.689996 2.2725 0.569996 2.44125C0.524996 2.505 0.569996 2.62875 0.569996 2.71875V16.6875C0.569996 17.28 0.727496 17.4375 1.30875 17.4375H11.6437C12.2231 17.4375 12.3825 17.2744 12.3825 16.6875V2.72625C12.3825 2.1225 12.225 1.97625 11.61 1.97625C11.3294 1.99254 11.048 1.98815 10.7681 1.96312C10.6425 1.94437 10.5356 1.79062 10.4213 1.69687C10.5356 1.60312 10.6425 1.43812 10.7625 1.42687C11.1368 1.39395 11.5132 1.39395 11.8875 1.42687C12.5456 1.48125 12.945 1.96875 12.9469 2.68312C12.9469 4.67437 12.9469 6.66625 12.9469 8.65875V16.6387C12.9469 17.5762 12.5156 18.0112 11.5744 18.0112H1.37062C0.433125 18.0112 0 17.5819 0 16.6369V2.775C0 1.8375 0.429378 1.40625 1.37438 1.40625H2.7975ZM6.43312 3.375C7.26562 3.375 8.09812 3.375 8.92875 3.375C9.35625 3.375 9.55875 3.1875 9.56062 2.76187C9.56062 2.235 9.56062 1.70625 9.56062 1.17937C9.56062 0.763121 9.35625 0.566252 8.92875 0.564377H4.00875C3.57 0.564377 3.37687 0.764996 3.375 1.215C3.375 1.71937 3.375 2.22187 3.375 2.72625C3.375 3.1875 3.5625 3.375 4.0425 3.37688L6.43312 3.375Z" fill="white"/>
<path id="Vector_2" d="M3.375 8.43751C3.375 7.82562 3.55645 7.22747 3.89639 6.71871C4.23634 6.20994 4.71952 5.81341 5.28482 5.57925C5.85013 5.34509 6.47218 5.28382 7.07231 5.4032C7.67244 5.52257 8.22369 5.81723 8.65636 6.2499C9.08903 6.68257 9.38369 7.23382 9.50306 7.83394C9.62243 8.43407 9.56116 9.05612 9.327 9.62143C9.09284 10.1867 8.69631 10.6699 8.18755 11.0099C7.67878 11.3498 7.08064 11.5313 6.46875 11.5313C5.65141 11.521 4.87042 11.1918 4.29243 10.6138C3.71443 10.0358 3.38521 9.25485 3.375 8.43751ZM6.4575 5.90062C5.95679 5.90286 5.468 6.05354 5.05294 6.33361C4.63789 6.61368 4.31521 7.01056 4.12574 7.47404C3.93628 7.93752 3.88853 8.44678 3.98853 8.93741C4.08853 9.42803 4.3318 9.87797 4.68756 10.2303C5.04331 10.5827 5.49558 10.8216 5.98715 10.9169C6.47871 11.0121 6.98749 10.9595 7.44912 10.7656C7.91075 10.5716 8.3045 10.2452 8.58056 9.82742C8.85662 9.40969 9.00259 8.91946 9 8.41876C9.00053 8.08613 8.9349 7.75672 8.80694 7.44969C8.67898 7.14265 8.49124 6.86413 8.25465 6.63032C8.01805 6.39652 7.73732 6.2121 7.42879 6.08779C7.12027 5.96349 6.7901 5.90178 6.4575 5.90626V5.90062Z" fill="white"/>
<path id="Vector_3" d="M6.46866 13.2188C7.11179 13.2188 7.75304 13.2188 8.39617 13.2188C8.60804 13.2188 8.83491 13.2356 8.84241 13.4906C8.84991 13.7456 8.63429 13.785 8.41679 13.785C7.12179 13.785 5.82554 13.785 4.52804 13.785C4.31242 13.785 4.09116 13.7531 4.09678 13.4962C4.10241 13.2394 4.32741 13.2188 4.54116 13.2188C5.18053 13.2206 5.82366 13.2188 6.46866 13.2188Z" fill="white"/>
<path id="Vector_4" d="M6.4688 14.9062C7.12318 14.9062 7.7813 14.9062 8.43192 14.9062C8.6363 14.9062 8.83506 14.9494 8.84068 15.1819C8.84631 15.4144 8.65317 15.4725 8.44505 15.4706H4.48693C4.27693 15.4706 4.08568 15.4144 4.09506 15.18C4.10443 14.9456 4.30317 14.9062 4.50755 14.9062C5.1563 14.9081 5.8163 14.9062 6.4688 14.9062Z" fill="white"/>
<path id="Vector_5" d="M6.75005 8.15803C7.0137 8.14157 7.27822 8.14533 7.54129 8.16928C7.66129 8.18991 7.7588 8.3324 7.86755 8.42052C7.7588 8.5199 7.65755 8.69053 7.53943 8.70365C7.20262 8.74585 6.86185 8.74585 6.52504 8.70365C6.44928 8.68204 6.38018 8.64168 6.32414 8.58629C6.2681 8.53091 6.22693 8.46228 6.20443 8.38678C6.16786 7.95567 6.16786 7.52226 6.20443 7.09116C6.20443 6.97303 6.39192 6.8699 6.48192 6.75928C6.57192 6.8774 6.72567 6.98803 6.7388 7.11553C6.7615 7.46257 6.76526 7.81059 6.75005 8.15803Z" fill="white"/>
</g>
<defs>
<clipPath id="clip0_4038_55">
<rect width="12.9375" height="18" fill="white"/>
</clipPath>
</defs>
</svg>
