<svg width="12" height="16" viewBox="0 0 12 16" fill="none" xmlns="http://www.w3.org/2000/svg">
<path d="M5.86675 0C2.63266 0 1.41117e-06 2.63267 0 5.86675C-2.01596e-06 11.5573 5.53601 15.8835 5.53601 15.8835C5.63051 15.9589 5.74782 16 5.86872 16C5.98962 16 6.10693 15.9589 6.20143 15.8835C6.20143 15.8835 11.7375 11.5573 11.7374 5.86675C11.7374 2.63267 9.10084 0 5.86675 0ZM5.86675 1.06704C8.52431 1.06704 10.6704 3.2092 10.6704 5.86675C10.6704 10.5221 6.45491 14.2002 5.87069 14.6984C5.28926 14.2027 1.06704 10.5239 1.06704 5.86675C1.06704 3.2092 3.20919 1.06704 5.86675 1.06704Z" fill="black"/>
<path d="M5.86668 3.20111C4.40009 3.20111 3.20105 4.40016 3.20105 5.86675C3.20104 7.33335 4.40008 8.53631 5.86668 8.53631C7.33328 8.53631 8.53626 7.33335 8.53625 5.86675C8.53624 4.40016 7.33327 3.20111 5.86668 3.20111ZM5.86668 4.26815C6.75674 4.26815 7.46921 4.97668 7.46921 5.86675C7.46921 6.75681 6.75675 7.46927 5.86668 7.46927C4.97661 7.46927 4.26808 6.75681 4.26809 5.86675C4.26809 4.97668 4.97662 4.26815 5.86668 4.26815Z" fill="black"/>
</svg>
