<svg width="13" height="14" viewBox="0 0 13 14" fill="none" xmlns="http://www.w3.org/2000/svg">
<g clip-path="url(#clip0_375_3140)">
<path d="M10.2848 5.34865V5.552C10.2848 8.07453 10.2838 10.5969 10.2817 13.1192C10.2847 13.2547 10.2601 13.3894 10.2092 13.515C10.0499 13.8746 9.61943 13.9953 9.26882 13.7877C8.75032 13.4795 8.23142 13.1718 7.72149 12.8492C7.55475 12.7441 7.43009 12.7417 7.26063 12.8492C6.70395 13.1979 6.13287 13.5228 5.57347 13.8668C5.28052 14.0471 5.00937 14.0475 4.71448 13.864C4.14065 13.5068 3.55398 13.1698 2.97743 12.8165C2.85161 12.7386 2.75617 12.7433 2.63151 12.8196C2.09755 13.1487 1.55968 13.4718 1.01794 13.7889C0.608899 14.0288 0.131704 13.8376 0.0206792 13.3954C0.00538472 13.3241 -0.00115628 13.2513 0.00120118 13.1784C0.00120118 9.39968 0.00120118 5.62095 0.00120118 1.84223C0.00120118 0.80249 0.804468 0.0035042 1.84615 0.00272508C4.90368 0.00116684 7.96158 0.00116684 11.0199 0.00272508C12.0549 0.00272508 12.8551 0.798983 12.8606 1.83132C12.8644 2.6203 12.8644 3.40916 12.8606 4.19789C12.8582 4.87105 12.3837 5.34476 11.7094 5.34904C11.2427 5.35099 10.7756 5.34865 10.2848 5.34865ZM9.34986 12.7367V12.5329C9.34986 9.00402 9.34908 5.47474 9.34752 1.94506C9.34752 1.60537 9.36972 1.27502 9.5197 0.964156C9.52204 0.959092 9.51268 0.948574 9.50606 0.935719H1.9147C1.29141 0.935719 0.935365 1.28905 0.935365 1.90962V12.7472C1.36388 12.4889 1.76824 12.2501 2.16832 12.0019C2.59138 11.7398 3.00938 11.7409 3.43283 11.9984C3.96847 12.3245 4.50763 12.6455 5.0421 12.9723C5.07196 12.9954 5.10859 13.0079 5.1463 13.0079C5.18401 13.0079 5.22066 12.9954 5.25052 12.9723C5.78188 12.6482 6.31907 12.3338 6.84966 12.0082C7.2844 11.7409 7.70981 11.7476 8.14066 12.0132C8.49127 12.2298 8.84849 12.4418 9.20299 12.6529C9.24351 12.6798 9.28558 12.7004 9.34986 12.7367ZM10.2848 4.41293C10.7834 4.41293 11.2587 4.41293 11.7355 4.41293C11.8578 4.41293 11.9256 4.34515 11.9256 4.22166C11.9256 3.39501 11.935 2.56797 11.9194 1.74172C11.9108 1.28204 11.48 0.91897 11.0121 0.937669C10.6206 0.953251 10.2719 1.28632 10.2801 1.77444C10.2969 2.6007 10.2848 3.42773 10.2848 4.25438V4.41293Z" fill="black"/>
<path d="M4.80559 3.53253C5.40914 3.53253 6.0127 3.53253 6.61626 3.53253C6.93141 3.53253 7.13672 3.7168 7.13789 3.99611C7.13905 4.27542 6.92948 4.46669 6.61978 4.46669C5.40279 4.46669 4.18594 4.46669 2.96922 4.46669C2.69652 4.46669 2.50407 4.29957 2.46979 4.04986C2.45699 3.94256 2.4824 3.83418 2.54152 3.74371C2.60064 3.65325 2.68972 3.58648 2.79313 3.55513C2.85889 3.53829 2.9267 3.53094 2.99453 3.53331C3.59835 3.53175 4.20177 3.53253 4.80559 3.53253Z" fill="black"/>
<path d="M4.79464 6.96416C4.18148 6.96416 3.56792 6.96727 2.95475 6.96416C2.62012 6.96143 2.40159 6.68484 2.48534 6.37982C2.50442 6.29599 2.5479 6.21969 2.61029 6.16055C2.67269 6.10141 2.75122 6.06208 2.83595 6.04752C2.9029 6.03549 2.9709 6.03027 3.0389 6.03194C4.21693 6.03194 5.39483 6.03194 6.5726 6.03194C6.66 6.02939 6.74729 6.03976 6.83165 6.06272C7.03968 6.12777 7.16277 6.34437 7.13394 6.56915C7.1206 6.67154 7.07236 6.76619 6.99735 6.83716C6.92234 6.90812 6.82516 6.95106 6.72218 6.95871C6.5426 6.96961 6.36224 6.96455 6.18226 6.96455C5.71972 6.96481 5.25718 6.96467 4.79464 6.96416Z" fill="black"/>
<path d="M4.79467 9.52435C4.18151 9.52435 3.56795 9.52746 2.95478 9.52435C2.57535 9.52162 2.3459 9.1457 2.52627 8.82899C2.56331 8.75681 2.61977 8.69639 2.68928 8.65454C2.75879 8.6127 2.8386 8.59109 2.91973 8.59213C4.17515 8.59006 5.43096 8.59006 6.68716 8.59213C6.74704 8.59264 6.80622 8.605 6.8613 8.6285C6.91638 8.65201 6.96625 8.68619 7.00805 8.72907C7.04985 8.77195 7.08273 8.82269 7.10481 8.87835C7.12689 8.93401 7.13774 8.99349 7.13671 9.05337C7.13816 9.11569 7.12692 9.17767 7.10365 9.23551C7.08038 9.29334 7.04558 9.34584 7.00137 9.38979C6.95716 9.43375 6.90445 9.46824 6.84648 9.49117C6.78851 9.51411 6.72649 9.52499 6.66418 9.52318C6.07516 9.52746 5.48614 9.52318 4.89712 9.52318L4.79467 9.52435Z" fill="black"/>
</g>
<defs>
<clipPath id="clip0_375_3140">
<rect width="12.8633" height="14" fill="white"/>
</clipPath>
</defs>
</svg>
