<svg width="25" height="25" viewBox="0 0 25 25" fill="none" xmlns="http://www.w3.org/2000/svg">
<rect width="25" height="25" fill="#1E1E1E"/>
<rect width="375" height="812" transform="translate(-316 -305)" fill="white"/>
<rect x="-295.5" y="-8.5" width="334" height="42" rx="11.5" stroke="#D3DBE8"/>
<circle cx="12.5" cy="12.5" r="12.5" fill="#2A9CFE" fill-opacity="0.12"/>
<path d="M12.4997 18.5989C9.13952 18.5989 6.40576 15.8652 6.40576 12.505C6.40576 9.14486 9.13952 6.41125 12.4997 6.41125C15.8598 6.41125 18.5936 9.14486 18.5936 12.505C18.5936 15.8652 15.8598 18.5989 12.4997 18.5989ZM12.4997 7.01011C9.46979 7.01011 7.00461 9.47513 7.00461 12.505C7.00461 15.5351 9.46979 18.0001 12.4997 18.0001C15.5296 18.0001 17.9947 15.5351 17.9947 12.505C17.9947 9.47513 15.5296 7.01011 12.4997 7.01011Z" fill="#223DFE"/>
<path d="M12.4996 15.4864C10.8556 15.4864 9.51807 14.149 9.51807 12.505C9.51807 10.861 10.8556 9.52332 12.4996 9.52332C14.1436 9.52332 15.4813 10.8608 15.4813 12.505C15.4813 14.1491 14.1436 15.4864 12.4996 15.4864ZM12.4996 10.1222C11.1859 10.1222 10.1169 11.1911 10.1169 12.505C10.1169 13.8186 11.1859 14.8875 12.4996 14.8875C13.8135 14.8875 14.8824 13.8186 14.8824 12.505C14.8824 11.1911 13.8135 10.1222 12.4996 10.1222Z" fill="#223DFE"/>
<path d="M12.4996 7.01013C12.3343 7.01013 12.2002 6.87599 12.2002 6.71071V4.84484C12.2002 4.67955 12.3343 4.54541 12.4996 4.54541C12.6649 4.54541 12.799 4.67955 12.799 4.84484V6.71056C12.799 6.87599 12.6651 7.01013 12.4996 7.01013Z" fill="#223DFE"/>
<path d="M12.4996 20.4545C12.3343 20.4545 12.2002 20.3204 12.2002 20.1551V18.2995C12.2002 18.1343 12.3343 18.0001 12.4996 18.0001C12.6649 18.0001 12.799 18.1343 12.799 18.2995V20.1551C12.799 20.3204 12.6651 20.4545 12.4996 20.4545Z" fill="#223DFE"/>
<path d="M6.70483 12.8044H4.84435C4.67906 12.8044 4.54492 12.6703 4.54492 12.505C4.54492 12.3396 4.67906 12.2056 4.84435 12.2056H6.70483C6.87011 12.2056 7.00426 12.3396 7.00426 12.505C7.00426 12.6703 6.87011 12.8044 6.70483 12.8044Z" fill="#223DFE"/>
<path d="M20.1553 12.8044H18.2945C18.1293 12.8044 17.9951 12.6703 17.9951 12.505C17.9951 12.3396 18.1293 12.2056 18.2945 12.2056H20.1553C20.3206 12.2056 20.4548 12.3396 20.4548 12.505C20.4548 12.6703 20.3206 12.8044 20.1553 12.8044Z" fill="#223DFE"/>
</svg>
