<svg width="13" height="14" viewBox="0 0 13 14" fill="none" xmlns="http://www.w3.org/2000/svg">
<path d="M1.51526 4.55939C1.51526 7.06705 3.56698 9.11877 6.07465 9.11877C8.58231 9.11877 10.634 7.06705 10.634 4.55939C10.634 2.05172 8.58231 0 6.07465 0C3.56698 0 1.51526 2.05172 1.51526 4.55939ZM9.56124 4.55939C9.56124 6.47701 7.99227 8.04598 6.07465 8.04598C4.15702 8.04598 2.58806 6.47701 2.58806 4.55939C2.58806 2.64176 4.15702 1.0728 6.07465 1.0728C7.99227 1.0728 9.56124 2.64176 9.56124 4.55939Z" fill="black"/>
<path d="M0.764368 14C2.18582 12.5786 4.06322 11.8008 6.07471 11.8008C8.08621 11.8008 9.9636 12.5786 11.3851 14L12.1494 13.2356C10.5268 11.6264 8.36782 10.728 6.07471 10.728C3.78161 10.728 1.62261 11.6264 0 13.2356L0.764368 14Z" fill="black"/>
</svg>
