<svg width="14" height="14" viewBox="0 0 14 14" fill="none" xmlns="http://www.w3.org/2000/svg">
<path d="M10.2599 14C9.71521 13.996 9.17286 13.9276 8.64418 13.7963C6.81844 13.3558 4.93838 12.2383 3.35117 10.6497C1.76397 9.06114 0.645125 7.18073 0.204622 5.35674C-0.259212 3.43802 0.0716008 1.79649 1.13508 0.733019L1.43873 0.429368C1.71423 0.154418 2.08756 0 2.47678 0C2.86601 0 3.23934 0.154418 3.51484 0.429368L5.25979 2.17397C5.53491 2.44938 5.68944 2.82274 5.68944 3.21202C5.68944 3.60131 5.53491 3.97467 5.25979 4.25008L4.22904 5.28047C4.72317 6.14755 5.39525 7.01533 6.18955 7.80962C6.98384 8.60392 7.85231 9.27634 8.71904 9.77047L9.74944 8.73973C9.88574 8.60338 10.0476 8.49522 10.2257 8.42142C10.4038 8.34762 10.5947 8.30964 10.7875 8.30964C10.9803 8.30964 11.1712 8.34762 11.3493 8.42142C11.5274 8.49522 11.6892 8.60338 11.8255 8.73973L13.5702 10.4843C13.8453 10.7596 13.9999 11.133 13.9999 11.5222C13.9999 11.9115 13.8453 12.2848 13.5702 12.5601L13.2662 12.8637C12.5164 13.6149 11.4787 14 10.2599 14ZM2.47678 1.04398C2.42118 1.04371 2.36609 1.05453 2.31473 1.07582C2.26336 1.0971 2.21676 1.12843 2.17766 1.16795L1.87366 1.4716C1.07727 2.26799 0.844658 3.56094 1.21865 5.11019C1.61458 6.75137 2.63383 8.45662 4.08836 9.91081C5.54289 11.365 7.2478 12.3832 8.88933 12.7805C10.4389 13.1545 11.7312 12.9219 12.5276 12.1255L12.8312 11.8219C12.9106 11.7425 12.9551 11.6348 12.9551 11.5226C12.9551 11.4103 12.9106 11.3027 12.8312 11.2233L11.087 9.47866C11.0076 9.39932 10.8999 9.35476 10.7877 9.35476C10.6754 9.35476 10.5678 9.39932 10.4884 9.47866L9.18218 10.7848C9.10381 10.8633 9.00251 10.9147 8.89296 10.9317C8.7834 10.9488 8.67127 10.9305 8.57279 10.8796C7.502 10.3259 6.42251 9.51975 5.45096 8.54821C4.47942 7.57666 3.67502 6.49786 3.11995 5.42708C3.06898 5.32863 3.05065 5.21652 3.06761 5.10697C3.08458 4.99742 3.13596 4.8961 3.21432 4.81768L4.52086 3.5115C4.60019 3.4321 4.64476 3.32444 4.64476 3.2122C4.64476 3.09995 4.60019 2.9923 4.52086 2.9129L2.77626 1.16795C2.73703 1.12849 2.69036 1.09722 2.63895 1.07594C2.58754 1.05466 2.53242 1.0438 2.47678 1.04398Z" fill="black"/>
<path d="M10.8177 7.72048C10.6792 7.72048 10.5463 7.66544 10.4483 7.56749C10.3504 7.46953 10.2954 7.33667 10.2954 7.19814C10.2943 6.2818 9.9299 5.40327 9.28198 4.75529C8.63406 4.10731 7.75557 3.74278 6.83923 3.74167C6.7007 3.74167 6.56784 3.68664 6.46988 3.58868C6.37193 3.49072 6.31689 3.35787 6.31689 3.21933C6.31689 3.0808 6.37193 2.94794 6.46988 2.84999C6.56784 2.75203 6.7007 2.697 6.83923 2.697C9.32102 2.697 11.34 4.7167 11.34 7.19814C11.34 7.33667 11.285 7.46953 11.187 7.56749C11.0891 7.66544 10.9562 7.72048 10.8177 7.72048Z" fill="black"/>
<path d="M13.0254 7.72048C12.8869 7.72048 12.754 7.66545 12.6561 7.56749C12.5581 7.46953 12.5031 7.33668 12.5031 7.19814C12.5031 4.07492 9.96106 1.53393 6.83923 1.53393C6.7007 1.53393 6.56784 1.4789 6.46988 1.38094C6.37193 1.28299 6.31689 1.15013 6.31689 1.0116C6.31689 0.873065 6.37193 0.740207 6.46988 0.64225C6.56784 0.544293 6.7007 0.489262 6.83923 0.489262C10.5384 0.489262 13.5478 3.49896 13.5478 7.19814C13.5478 7.33668 13.4927 7.46953 13.3948 7.56749C13.2968 7.66545 13.164 7.72048 13.0254 7.72048Z" fill="black"/>
</svg>
