<svg width="14" height="14" viewBox="0 0 14 14" fill="none" xmlns="http://www.w3.org/2000/svg">
<path d="M11.551 0H1.99139C0.876822 0 0 0.903607 0 2.05448V11.9258C0 13.0767 0.876822 14 1.99139 14H11.551C12.6656 14 13.5525 13.0767 13.5525 11.9258V2.05448C13.5525 0.903607 12.6656 0 11.551 0ZM12.4018 11.9258C12.4018 12.3997 12.01 12.7854 11.551 12.7854H1.99139C1.53246 12.7854 1.15068 12.3997 1.15068 11.9258V2.05448C1.15068 1.58059 1.53246 1.21461 1.99139 1.21461H11.551C12.01 1.21461 12.4018 1.58059 12.4018 2.05448V11.9258Z" fill="black"/>
<path d="M10.1568 4.9863H5.71757C5.38924 4.9863 5.12305 5.22257 5.12305 5.56164C5.12305 5.90071 5.38917 6.13698 5.71757 6.13698H10.1568C10.4852 6.13698 10.7514 5.90071 10.7514 5.56164C10.7514 5.22257 10.4852 4.9863 10.1568 4.9863Z" fill="black"/>
<path d="M3.50907 6.17784C3.83742 6.17784 4.10359 5.90299 4.10359 5.56395C4.10359 5.22491 3.83742 4.95006 3.50907 4.95006C3.18073 4.95006 2.91455 5.22491 2.91455 5.56395C2.91455 5.90299 3.18073 6.17784 3.50907 6.17784Z" fill="black"/>
<path d="M10.1568 7.35159H5.71757C5.38924 7.35159 5.12305 7.61989 5.12305 7.9589C5.12305 8.2979 5.38917 8.5662 5.71757 8.5662H10.1568C10.4852 8.5662 10.7514 8.2979 10.7514 7.9589C10.7514 7.61989 10.4852 7.35159 10.1568 7.35159Z" fill="black"/>
<path d="M3.50907 8.59242C3.83742 8.59242 4.10359 8.31757 4.10359 7.97853C4.10359 7.63949 3.83742 7.36464 3.50907 7.36464C3.18073 7.36464 2.91455 7.63949 2.91455 7.97853C2.91455 8.31757 3.18073 8.59242 3.50907 8.59242Z" fill="black"/>
<path d="M10.1568 9.78082H5.71757C5.38924 9.78082 5.12305 10.0491 5.12305 10.3881C5.12305 10.7271 5.38917 10.9954 5.71757 10.9954H10.1568C10.4852 10.9954 10.7514 10.7271 10.7514 10.3881C10.7514 10.0491 10.4852 9.78082 10.1568 9.78082Z" fill="black"/>
<path d="M3.50907 11.0071C3.83742 11.0071 4.10359 10.7322 4.10359 10.3932C4.10359 10.0541 3.83742 9.77928 3.50907 9.77928C3.18073 9.77928 2.91455 10.0541 2.91455 10.3932C2.91455 10.7322 3.18073 11.0071 3.50907 11.0071Z" fill="black"/>
<path d="M10.1569 2.55708H3.24747C2.91915 2.55708 2.65295 2.82532 2.65295 3.16439C2.65295 3.50346 2.91908 3.7717 3.24747 3.7717H10.157C10.4853 3.7717 10.7515 3.50346 10.7515 3.16439C10.7514 2.82532 10.4852 2.55708 10.1569 2.55708Z" fill="black"/>
</svg>
